<svg width="30" height="30" viewBox="0 0 30 30" fill="none" xmlns="http://www.w3.org/2000/svg">
<g clip-path="url(#clip0_15_590)">
<circle cx="15" cy="15" r="15" fill="#E1E1E1"/>
<path d="M16.0476 23.9857C15.9583 23.9893 15.9012 23.9964 15.844 23.9964C14.6223 23.9964 13.4042 23.9929 12.1826 24C12.0111 24 11.9647 23.9536 11.9647 23.7821C11.9682 20.9387 11.9682 18.0917 11.9682 15.2483C11.9682 15.1733 11.9682 15.0982 11.9682 15.0018C11.3038 15.0018 10.6573 15.0018 10 15.0018C10 13.9873 10 12.9907 10 11.9655C10.0679 11.9655 10.1322 11.9655 10.1929 11.9655C10.7287 11.9655 11.2645 11.9619 11.8004 11.969C11.9361 11.969 11.9718 11.9298 11.9718 11.7976C11.9647 11.001 11.9647 10.2008 11.9718 9.40425C11.9754 8.847 12.0647 8.30404 12.3219 7.80037C12.6898 7.08951 13.2721 6.6287 14.0079 6.34293C14.6081 6.10717 15.2403 6.02144 15.8762 6.01073C16.9121 5.99644 17.948 6.00358 18.9839 6.00001C19.0804 6.00001 19.159 5.99644 19.159 6.13218C19.1554 7.11452 19.1554 8.09685 19.1554 9.07919C19.1554 9.08991 19.1518 9.10062 19.1375 9.14706C19.0768 9.14706 19.0089 9.14706 18.9411 9.14706C18.2981 9.14706 17.6551 9.14349 17.0121 9.14706C16.6406 9.14706 16.3405 9.29709 16.1512 9.62215C16.0941 9.7186 16.0583 9.84363 16.0583 9.95794C16.0476 10.5652 16.0583 11.1725 16.0512 11.7797C16.0512 11.9226 16.0941 11.9619 16.2334 11.9619C17.1264 11.9548 18.0194 11.9583 18.9125 11.9583C18.9839 11.9583 19.0518 11.9583 19.1732 11.9583C19.0482 12.98 18.9268 13.9802 18.8017 14.9911C17.873 14.9911 16.9692 14.9911 16.0476 14.9911C16.0476 17.9952 16.0476 20.9815 16.0476 23.9857Z" fill="black"/>
</g>
<defs>
<clipPath id="clip0_15_590">
<rect width="30" height="30" fill="white"/>
</clipPath>
</defs>
</svg>
