<svg width="22" height="22" viewBox="0 0 22 22" fill="none" xmlns="http://www.w3.org/2000/svg">
<g clip-path="url(#clip0_14_403)">
<path d="M10 20.5C10.4 18.1 4.5 11.5 1.5 8.5L3.5 4L7.5 1.5L13 1L14 2.5V4H10V5H9V8H6V11H14V12H15V16H16L15.9879 17C17.0238 17.1366 18.2253 17.0861 19 17C15.8 21 11.6667 21 10 20.5Z" fill="#4D4D4D"/>
<path d="M8 18H10L12 17L8.5 13.5L5.5 11L4.5 8H1.5L2 10H3V11H4H5V12V13H6V14H8V16V18Z" fill="#4D4D4D"/>
<circle cx="11" cy="11" r="10" stroke="#4D4D4D" stroke-width="2"/>
</g>
<defs>
<clipPath id="clip0_14_403">
<rect width="22" height="22" fill="white"/>
</clipPath>
</defs>
</svg>
