<svg width="30" height="30" viewBox="0 0 30 30" fill="none" xmlns="http://www.w3.org/2000/svg">
<g clip-path="url(#clip0_15_598)">
<circle cx="15" cy="15" r="15" fill="#E1E1E1"/>
<path d="M7.71 15.5C7.71 13.961 8.961 12.71 10.5 12.71H14.1V11H10.5C8.016 11 6 13.016 6 15.5C6 17.984 8.016 20 10.5 20H14.1V18.29H10.5C8.961 18.29 7.71 17.039 7.71 15.5ZM11.4 16.4H18.6V14.6H11.4V16.4ZM19.5 11H15.9V12.71H19.5C21.039 12.71 22.29 13.961 22.29 15.5C22.29 17.039 21.039 18.29 19.5 18.29H15.9V20H19.5C21.984 20 24 17.984 24 15.5C24 13.016 21.984 11 19.5 11Z" fill="black"/>
</g>
<defs>
<clipPath id="clip0_15_598">
<rect width="30" height="30" fill="white"/>
</clipPath>
</defs>
</svg>
