<svg width="12" height="12" viewBox="0 0 12 12" fill="none" xmlns="http://www.w3.org/2000/svg">
<g clip-path="url(#clip0_14_462)">
<path d="M6 12C2.7 12 0 9.3 0 6C0 5.64 0.24 5.4 0.6 5.4C0.96 5.4 1.2 5.64 1.2 6C1.2 8.64 3.36 10.8 6 10.8C8.64 10.8 10.8 8.64 10.8 6C10.8 3.36 8.64 1.2 6 1.2C4.38 1.2 2.88 1.98 2.04 3.36C1.8 3.6 1.44 3.66 1.2 3.48C0.9 3.3 0.84 2.94 1.02 2.64C2.1 1.02 4.02 0 6 0C9.3 0 12 2.7 12 6C12 9.3 9.3 12 6 12Z" fill="#666666"/>
<path d="M6.00002 6.59996C5.64002 6.59996 5.40002 6.35996 5.40002 5.99996V2.99996C5.40002 2.63996 5.64002 2.39996 6.00002 2.39996C6.36002 2.39996 6.60002 2.63996 6.60002 2.99996V5.99996C6.60002 6.35996 6.36002 6.59996 6.00002 6.59996Z" fill="#666666"/>
<path d="M7.80002 8.39996C7.62002 8.39996 7.50002 8.33996 7.38002 8.21996L5.58002 6.41996C5.34002 6.17996 5.34002 5.81996 5.58002 5.57996C5.82002 5.33996 6.18002 5.33996 6.42002 5.57996L8.22002 7.37996C8.46002 7.61996 8.46002 7.97996 8.22002 8.21996C8.10002 8.33996 7.98002 8.39996 7.80002 8.39996Z" fill="#666666"/>
<path d="M3.59998 3.6H1.19998C0.839976 3.6 0.599976 3.36 0.599976 3V0.6C0.599976 0.24 0.839976 0 1.19998 0C1.55998 0 1.79998 0.24 1.79998 0.6V2.4H3.59998C3.95998 2.4 4.19998 2.64 4.19998 3C4.19998 3.36 3.95998 3.6 3.59998 3.6Z" fill="#666666"/>
</g>
<defs>
<clipPath id="clip0_14_462">
<rect width="12" height="12" fill="white"/>
</clipPath>
</defs>
</svg>
