<svg width="30" height="30" viewBox="0 0 30 30" fill="none" xmlns="http://www.w3.org/2000/svg">
<g clip-path="url(#clip0_15_594)">
<circle cx="15" cy="15" r="15" fill="#E1E1E1"/>
<path d="M6.02494 21.0731C8.00554 21.2512 9.79022 20.7525 11.4146 19.5342C9.71542 19.3846 8.57906 18.5368 7.94498 16.948C8.50069 17.0157 9.02078 17.0335 9.57293 16.8839C7.74194 16.3139 6.76588 15.117 6.63408 13.1863C7.18266 13.4428 7.69919 13.628 8.30833 13.6351C7.22185 12.8194 6.66614 11.7614 6.68751 10.4291C6.6982 9.8164 6.86206 9.23931 7.18623 8.69429C9.19889 11.0489 11.7245 12.3527 14.8344 12.57C14.8165 12.4346 14.8059 12.3278 14.7916 12.2173C14.5351 10.2439 15.8175 8.4485 17.7768 8.07446C19.0057 7.83935 20.0922 8.16352 21.0113 9.01133C21.1538 9.13957 21.2749 9.16807 21.453 9.12176C22.169 8.94008 22.8494 8.67648 23.5084 8.32026C23.2555 9.15382 22.7354 9.78077 22.0301 10.308C22.1904 10.2795 22.3542 10.2581 22.5145 10.2261C22.682 10.1904 22.8494 10.1512 23.0168 10.1049C23.1771 10.0622 23.3339 10.0123 23.4906 9.95889C23.6509 9.90545 23.8112 9.84489 24 9.81283C23.9074 9.94107 23.8183 10.0764 23.7186 10.2011C23.3054 10.7248 22.828 11.1843 22.3044 11.594C22.2509 11.6367 22.2046 11.7293 22.2082 11.7934C22.2367 13.058 22.0586 14.2906 21.6489 15.4875C20.8439 17.8457 19.4403 19.755 17.335 21.1194C16.2949 21.7926 15.1585 22.2344 13.9438 22.4908C12.7398 22.7438 11.5286 22.7901 10.3139 22.6476C9.09559 22.5051 7.93786 22.1453 6.84781 21.5825C6.55927 21.4364 6.28142 21.2726 6 21.1158C6.01069 21.1016 6.01781 21.0873 6.02494 21.0731Z" fill="black"/>
</g>
<defs>
<clipPath id="clip0_15_594">
<rect width="30" height="30" fill="white"/>
</clipPath>
</defs>
</svg>
